<svg width="32.000000" height="32.000000" viewBox="0 0 32 32" fill="none" xmlns="http://www.w3.org/2000/svg" xmlns:xlink="http://www.w3.org/1999/xlink">
	<desc>
			Created with Pixso.
	</desc>
	<defs>
		<clipPath id="clip1_66">
			<rect id="IMAGE" width="32.000000" height="32.000000" fill="white" fill-opacity="0"/>
		</clipPath>
	</defs>
	<g clip-path="url(#clip1_66)">
		<path id="Vector" d="M12.16 23.91C9.93 23.91 8.12 25.73 8.12 27.96C8.12 30.18 9.93 32 12.16 32C14.38 32 16.2 30.18 16.2 27.96C16.2 25.73 14.38 23.91 12.16 23.91ZM12.16 29.57C11.27 29.57 10.54 28.85 10.54 27.96C10.54 27.06 11.27 26.34 12.16 26.34C13.05 26.34 13.77 27.06 13.77 27.96C13.77 28.85 13.05 29.57 12.16 29.57Z" fill="#FFFFFF" fill-opacity="1.000000" fill-rule="nonzero"/>
		<path id="Vector" d="M24.12 23.91C21.89 23.91 20.08 25.73 20.08 27.96C20.08 30.18 21.89 32 24.12 32C26.34 32 28.16 30.18 28.16 27.96C28.16 25.73 26.34 23.91 24.12 23.91ZM24.12 29.57C23.22 29.57 22.5 28.85 22.5 27.96C22.5 27.06 23.22 26.34 24.12 26.34C25.01 26.34 25.73 27.06 25.73 27.96C25.73 28.85 25.01 29.57 24.12 29.57Z" fill="#FFFFFF" fill-opacity="1.000000" fill-rule="nonzero"/>
		<path id="Vector" d="M31.13 7.89C30.9 7.6 30.55 7.43 30.18 7.43L8.95 7.43L7.85 1.86C7.75 1.37 7.37 0.99 6.88 0.9L2.03 0.02C1.37 -0.11 0.74 0.33 0.62 0.99C0.5 1.65 0.94 2.28 1.6 2.4L5.63 3.14L9.19 21.12C9.3 21.69 9.8 22.1 10.38 22.1L27.35 22.1C27.91 22.1 28.4 21.71 28.53 21.16L31.36 8.91C31.44 8.55 31.36 8.18 31.13 7.89ZM26.38 19.67L11.37 19.67L9.43 9.85L28.65 9.85L26.38 19.67Z" fill="#FFFFFF" fill-opacity="1.000000" fill-rule="nonzero"/>
	</g>
</svg>
