<svg width="32.000000" height="32.000000" viewBox="0 0 32 32" fill="none" xmlns="http://www.w3.org/2000/svg" xmlns:xlink="http://www.w3.org/1999/xlink">
	<desc>
			Created with Pixso.
	</desc>
	<defs>
		<clipPath id="clip1_95">
			<rect id="IMAGE" width="32.000000" height="32.000000" fill="white" fill-opacity="0"/>
		</clipPath>
		<linearGradient id="paint_linear_1_96_0" x1="15.694408" y1="1.500000" x2="15.694408" y2="30.500000" gradientUnits="userSpaceOnUse">
			<stop stop-color="#FF9159"/>
			<stop offset="0.687500" stop-color="#FF7631"/>
			<stop offset="1.000000" stop-color="#FF6A1F"/>
		</linearGradient>
	</defs>
	<g clip-path="url(#clip1_95)">
		<path id="Vector" d="M17.24 7.25C18.05 8.38 18.49 9.75 18.49 11.15L18.49 12.5C18.92 12.5 19.34 12.35 19.67 12.09C20.01 11.82 20.25 11.46 20.36 11.04L20.49 10.5L20.86 10.94C21.46 11.65 21.78 12.56 21.77 13.49C21.77 14.42 21.43 15.32 20.83 16.02C20.6 16.29 20.48 16.63 20.49 16.98C20.51 17.32 20.65 17.65 20.9 17.9C21.04 18.04 21.2 18.15 21.38 18.22C21.56 18.29 21.76 18.32 21.95 18.3C22.15 18.29 22.34 18.24 22.51 18.15C22.68 18.06 22.84 17.94 22.96 17.79L23.99 16.5L24.99 19C25.45 20.51 25.48 22.11 25.1 23.64C24.71 25.17 23.92 26.57 22.8 27.69L22.67 27.81C20.96 29.53 18.63 30.5 16.2 30.5L15.18 30.5C13.6 30.5 12.04 30.09 10.67 29.31C9.29 28.53 8.14 27.4 7.32 26.05C6.35 24.42 5.9 22.54 6.04 20.65C6.19 18.76 6.91 16.96 8.12 15.5L12.16 10.6C12.56 10.12 12.82 9.53 12.9 8.91C12.99 8.29 12.9 7.66 12.65 7.09C12.32 6.36 12.27 5.55 12.49 4.78C12.71 4.02 13.19 3.36 13.85 2.92L15.99 1.5L15.99 3.34C15.99 4.74 16.43 6.11 17.24 7.25Z" fill="url(#paint_linear_1_96_0)" fill-opacity="1.000000" fill-rule="nonzero"/>
		<path id="Vector" d="M19.68 27.08L19.69 27.08C20.47 26.3 21.02 25.32 21.3 24.25C21.57 23.18 21.56 22.06 21.25 21L19.8 22.45C19.66 22.59 19.5 22.7 19.32 22.77C19.14 22.84 18.95 22.88 18.75 22.88C18.56 22.88 18.37 22.84 18.19 22.77C18.01 22.7 17.84 22.59 17.71 22.45C17.45 22.19 17.29 21.84 17.28 21.47C17.26 21.1 17.38 20.74 17.62 20.46C18.1 19.87 18.41 19.16 18.5 18.41C18.58 17.65 18.45 16.89 18.11 16.21L15.75 11.5L15.39 15.48C15.35 15.96 15.21 16.43 14.98 16.85C14.75 17.27 14.44 17.64 14.07 17.94L12.01 19.59C11.46 20.03 11.02 20.59 10.71 21.22C10.41 21.85 10.25 22.54 10.25 23.24L10.25 23.81C10.25 24.49 10.4 25.17 10.69 25.79C10.98 26.41 11.41 26.96 11.93 27.4C12.79 28.11 13.86 28.49 14.97 28.48L16.41 28.46C17.64 28.45 18.82 27.96 19.68 27.08Z" fill="#FDD04A" fill-opacity="1.000000" fill-rule="nonzero"/>
		<path id="Vector" d="M7.5 12C7.36 12 7.24 11.94 7.14 11.85C7.05 11.75 7 11.63 7 11.5L7 10.5C7 10.36 7.05 10.24 7.14 10.14C7.24 10.05 7.36 10 7.5 10C7.63 10 7.75 10.05 7.85 10.14C7.94 10.24 8 10.36 8 10.5L8 11.5C8 11.63 7.94 11.75 7.85 11.85C7.75 11.94 7.63 12 7.5 12Z" fill="#FE691E" fill-opacity="1.000000" fill-rule="nonzero"/>
		<path id="Vector" d="M9 9.5C8.86 9.5 8.74 9.44 8.64 9.35C8.55 9.25 8.5 9.13 8.5 9L8.5 8C8.5 7.86 8.55 7.74 8.64 7.64C8.74 7.55 8.86 7.5 9 7.5C9.13 7.5 9.25 7.55 9.35 7.64C9.44 7.74 9.5 7.86 9.5 8L9.5 9C9.5 9.13 9.44 9.25 9.35 9.35C9.25 9.44 9.13 9.5 9 9.5Z" fill="#FF8D54" fill-opacity="1.000000" fill-rule="nonzero"/>
		<path id="Vector" d="M7 7.5C6.86 7.5 6.74 7.44 6.64 7.35C6.55 7.25 6.5 7.13 6.5 7L6.5 6C6.5 5.86 6.55 5.74 6.64 5.64C6.74 5.55 6.86 5.5 7 5.5C7.13 5.5 7.25 5.55 7.35 5.64C7.44 5.74 7.5 5.86 7.5 6L7.5 7C7.5 7.13 7.44 7.25 7.35 7.35C7.25 7.44 7.13 7.5 7 7.5Z" fill="#FFB895" fill-opacity="1.000000" fill-rule="nonzero"/>
		<path id="Vector" d="M24.5 13.5C24.36 13.5 24.24 13.44 24.14 13.35C24.05 13.25 24 13.13 24 13L24 12C24 11.86 24.05 11.74 24.14 11.64C24.24 11.55 24.36 11.5 24.5 11.5C24.63 11.5 24.75 11.55 24.85 11.64C24.94 11.74 25 11.86 25 12L25 13C25 13.13 24.94 13.25 24.85 13.35C24.75 13.44 24.63 13.5 24.5 13.5Z" fill="#FE691E" fill-opacity="1.000000" fill-rule="nonzero"/>
		<path id="Vector" d="M23 10C22.86 10 22.74 9.94 22.64 9.85C22.55 9.75 22.5 9.63 22.5 9.5L22.5 8.5C22.5 8.36 22.55 8.24 22.64 8.14C22.74 8.05 22.86 8 23 8C23.13 8 23.25 8.05 23.35 8.14C23.44 8.24 23.5 8.36 23.5 8.5L23.5 9.5C23.5 9.63 23.44 9.75 23.35 9.85C23.25 9.94 23.13 10 23 10Z" fill="#FF8D54" fill-opacity="1.000000" fill-rule="nonzero"/>
		<path id="Vector" d="M25 8.5C24.86 8.5 24.74 8.44 24.64 8.35C24.55 8.25 24.5 8.13 24.5 8L24.5 6.5C24.5 6.36 24.55 6.24 24.64 6.14C24.74 6.05 24.86 6 25 6C25.13 6 25.25 6.05 25.35 6.14C25.44 6.24 25.5 6.36 25.5 6.5L25.5 8C25.5 8.13 25.44 8.25 25.35 8.35C25.25 8.44 25.13 8.5 25 8.5Z" fill="#FFB895" fill-opacity="1.000000" fill-rule="nonzero"/>
	</g>
</svg>
