<svg width="170.000000" height="48.000000" viewBox="0 0 170 48" fill="none" xmlns="http://www.w3.org/2000/svg" xmlns:xlink="http://www.w3.org/1999/xlink">
	<desc>
			Created with Pixso.
	</desc>
	<defs>
		<clipPath id="clip1_60">
			<rect id="IMAGE" width="170.000000" height="48.000000" fill="white" fill-opacity="0"/>
		</clipPath>
		<linearGradient id="paint_linear_1_61_0" x1="16.302999" y1="9.705742" x2="49.290092" y2="47.640892" gradientUnits="userSpaceOnUse">
			<stop stop-color="#57B8FF"/>
			<stop offset="0.940625" stop-color="#038EF2"/>
			<stop offset="1.000000" stop-color="#FFFFFF" stop-opacity="0.000000"/>
		</linearGradient>
	</defs>
	<g clip-path="url(#clip1_60)">
		<path id="Vector" d="M27.43 11.91C22.01 12.61 10.59 9.61 9.89 4.19L9.81 4.2C10.37 8.54 12.63 12.48 16.09 15.15C19.55 17.83 23.93 19.01 28.27 18.46C30.88 18.12 33.51 18.84 35.58 20.44C37.66 22.04 39.01 24.41 39.35 27.01C39.68 29.61 38.97 32.24 37.37 34.32C35.76 36.4 33.4 37.75 30.8 38.09C28.19 38.42 25.57 37.71 23.49 36.11C21.41 34.5 20.05 32.14 19.72 29.54C19.44 27.39 18.75 25.32 17.67 23.44C16.59 21.56 15.16 19.91 13.44 18.59C11.73 17.26 9.77 16.29 7.68 15.72C5.59 15.15 3.41 15.01 1.26 15.28L1.27 15.36C6.69 14.66 12.48 24.95 13.18 30.37L13.17 30.37C13.59 33.61 14.96 36.65 17.1 39.11C19.24 41.57 22.07 43.34 25.21 44.19C28.36 45.04 31.69 44.95 34.79 43.91C37.88 42.87 40.59 40.94 42.59 38.35C44.58 35.77 45.76 32.66 45.99 29.4C46.21 26.15 45.47 22.9 43.84 20.07C42.22 17.24 39.8 14.95 36.87 13.5C33.95 12.05 30.67 11.5 27.43 11.91Z" fill="url(#paint_linear_1_61_0)" fill-opacity="1.000000" fill-rule="nonzero"/>
		<path id="Vector" d="M57.78 14.09L57.78 33L53.99 33L53.99 14.09L57.78 14.09ZM69.84 17.77C71.63 17.77 73.07 18.34 74.18 19.48C75.28 20.6 75.83 22.17 75.83 24.19L75.83 33L72.04 33L72.04 24.71C72.04 23.52 71.74 22.6 71.14 21.97C70.55 21.32 69.73 21 68.71 21C67.66 21 66.83 21.32 66.21 21.97C65.62 22.6 65.32 23.52 65.32 24.71L65.32 33L61.53 33L61.53 17.99L65.32 17.99L65.32 19.86C65.83 19.21 66.47 18.7 67.24 18.34C68.04 17.96 68.9 17.77 69.84 17.77ZM86.31 21.11L83.69 21.11L83.69 33L79.84 33L79.84 21.11L78.13 21.11L78.13 17.99L79.84 17.99L79.84 17.23C79.84 15.39 80.36 14.04 81.41 13.17C82.46 12.3 84.04 11.9 86.15 11.95L86.15 15.15C85.23 15.13 84.59 15.28 84.23 15.61C83.87 15.93 83.69 16.52 83.69 17.37L83.69 17.99L86.31 17.99L86.31 21.11ZM90.69 16.2C90.03 16.2 89.47 16 89.01 15.58C88.58 15.15 88.36 14.61 88.36 13.98C88.36 13.35 88.58 12.83 89.01 12.41C89.47 11.98 90.03 11.76 90.69 11.76C91.36 11.76 91.91 11.98 92.35 12.41C92.8 12.83 93.02 13.35 93.02 13.98C93.02 14.61 92.8 15.15 92.35 15.58C91.91 16 91.36 16.2 90.69 16.2ZM92.56 17.99L92.56 33L88.77 33L88.77 17.99L92.56 17.99ZM104.62 17.77C106.41 17.77 107.86 18.34 108.96 19.48C110.06 20.6 110.61 22.17 110.61 24.19L110.61 33L106.82 33L106.82 24.71C106.82 23.52 106.52 22.6 105.92 21.97C105.33 21.32 104.52 21 103.49 21C102.44 21 101.61 21.32 100.99 21.97C100.4 22.6 100.1 23.52 100.1 24.71L100.1 33L96.31 33L96.31 17.99L100.1 17.99L100.1 19.86C100.61 19.21 101.25 18.7 102.02 18.34C102.82 17.96 103.68 17.77 104.62 17.77ZM116.14 16.2C115.47 16.2 114.91 16 114.46 15.58C114.02 15.15 113.81 14.61 113.81 13.98C113.81 13.35 114.02 12.83 114.46 12.41C114.91 11.98 115.47 11.76 116.14 11.76C116.81 11.76 117.36 11.98 117.79 12.41C118.24 12.83 118.47 13.35 118.47 13.98C118.47 14.61 118.24 15.15 117.79 15.58C117.36 16 116.81 16.2 116.14 16.2ZM118.01 17.99L118.01 33L114.21 33L114.21 17.99L118.01 17.99ZM125.22 29.88L131.91 29.88L131.91 33L120.91 33L120.91 29.93L127.47 21.11L120.94 21.11L120.94 17.99L131.83 17.99L131.83 21.05L125.22 29.88ZM133.87 25.44C133.87 23.92 134.17 22.58 134.76 21.4C135.38 20.23 136.2 19.33 137.23 18.7C138.27 18.06 139.44 17.75 140.72 17.75C141.84 17.75 142.82 17.97 143.65 18.42C144.5 18.88 145.17 19.44 145.68 20.13L145.68 17.99L149.5 17.99L149.5 33L145.68 33L145.68 30.8C145.19 31.51 144.51 32.09 143.65 32.56C142.8 33.01 141.81 33.24 140.69 33.24C139.43 33.24 138.27 32.91 137.23 32.26C136.2 31.61 135.38 30.7 134.76 29.53C134.17 28.34 133.87 26.97 133.87 25.44ZM145.68 25.49C145.68 24.57 145.5 23.79 145.14 23.14C144.77 22.47 144.29 21.96 143.67 21.62C143.06 21.26 142.4 21.08 141.7 21.08C140.99 21.08 140.34 21.25 139.75 21.59C139.15 21.94 138.66 22.44 138.28 23.11C137.92 23.76 137.74 24.54 137.74 25.44C137.74 26.34 137.92 27.14 138.28 27.82C138.66 28.49 139.15 29 139.75 29.37C140.36 29.73 141.01 29.91 141.7 29.91C142.4 29.91 143.06 29.74 143.67 29.39C144.29 29.03 144.77 28.53 145.14 27.88C145.5 27.21 145.68 26.41 145.68 25.49ZM155.12 16.2C154.45 16.2 153.89 16 153.44 15.58C153.01 15.15 152.79 14.61 152.79 13.98C152.79 13.35 153.01 12.83 153.44 12.41C153.89 11.98 154.45 11.76 155.12 11.76C155.79 11.76 156.34 11.98 156.77 12.41C157.23 12.83 157.45 13.35 157.45 13.98C157.45 14.61 157.23 15.15 156.77 15.58C156.34 16 155.79 16.2 155.12 16.2ZM156.99 17.99L156.99 33L153.2 33L153.2 17.99L156.99 17.99Z" fill="#FFFFFF" fill-opacity="1.000000" fill-rule="nonzero"/>
		<path id="Vector" d="M164 26.48L169.49 26.48L169.49 31.98L164 31.98L164 26.48Z" fill="#3BAAFB" fill-opacity="1.000000" fill-rule="evenodd"/>
	</g>
</svg>
